<mxfile host="app.diagrams.net" agent="Mozilla/5.0 (X11; Ubuntu; Linux x86_64; rv:136.0) Gecko/20100101 Firefox/136.0" version="26.1.1">
  <diagram name="Page-1" id="Bll3mSoCo_iuJiPyiwtn">
    <mxGraphModel dx="683" dy="378" grid="1" gridSize="10" guides="1" tooltips="1" connect="1" arrows="1" fold="1" page="1" pageScale="1" pageWidth="850" pageHeight="1100" math="0" shadow="0">
      <root>
        <mxCell id="0" />
        <mxCell id="1" parent="0" />
        <mxCell id="VEaSsE62jDZdbeiAd7b5-24" style="edgeStyle=orthogonalEdgeStyle;rounded=0;orthogonalLoop=1;jettySize=auto;html=1;exitX=1;exitY=0.5;exitDx=0;exitDy=0;" edge="1" parent="1" source="VEaSsE62jDZdbeiAd7b5-1" target="VEaSsE62jDZdbeiAd7b5-2">
          <mxGeometry relative="1" as="geometry" />
        </mxCell>
        <mxCell id="VEaSsE62jDZdbeiAd7b5-1" value="idle" style="ellipse;whiteSpace=wrap;html=1;" vertex="1" parent="1">
          <mxGeometry x="110" y="180" width="50" height="30" as="geometry" />
        </mxCell>
        <mxCell id="VEaSsE62jDZdbeiAd7b5-10" style="edgeStyle=orthogonalEdgeStyle;rounded=0;orthogonalLoop=1;jettySize=auto;html=1;exitX=0.5;exitY=1;exitDx=0;exitDy=0;entryX=0.5;entryY=0;entryDx=0;entryDy=0;" edge="1" parent="1" source="VEaSsE62jDZdbeiAd7b5-2" target="VEaSsE62jDZdbeiAd7b5-9">
          <mxGeometry relative="1" as="geometry" />
        </mxCell>
        <mxCell id="VEaSsE62jDZdbeiAd7b5-2" value="request" style="ellipse;whiteSpace=wrap;html=1;" vertex="1" parent="1">
          <mxGeometry x="210" y="180" width="50" height="30" as="geometry" />
        </mxCell>
        <mxCell id="VEaSsE62jDZdbeiAd7b5-5" value="&lt;span style=&quot;color: rgb(51, 51, 255);&quot;&gt;start_emu=1&lt;/span&gt;" style="text;html=1;align=center;verticalAlign=middle;whiteSpace=wrap;rounded=0;" vertex="1" parent="1">
          <mxGeometry x="160" y="160" width="60" height="30" as="geometry" />
        </mxCell>
        <mxCell id="VEaSsE62jDZdbeiAd7b5-6" value="&lt;div&gt;&lt;span style=&quot;color: rgb(255, 51, 51);&quot;&gt;req=1&lt;/span&gt;&lt;/div&gt;" style="text;html=1;align=center;verticalAlign=middle;whiteSpace=wrap;rounded=0;" vertex="1" parent="1">
          <mxGeometry x="150" y="190" width="60" height="30" as="geometry" />
        </mxCell>
        <mxCell id="VEaSsE62jDZdbeiAd7b5-14" style="edgeStyle=orthogonalEdgeStyle;rounded=0;orthogonalLoop=1;jettySize=auto;html=1;exitX=0.5;exitY=1;exitDx=0;exitDy=0;entryX=0.5;entryY=0;entryDx=0;entryDy=0;" edge="1" parent="1" source="VEaSsE62jDZdbeiAd7b5-9" target="VEaSsE62jDZdbeiAd7b5-13">
          <mxGeometry relative="1" as="geometry" />
        </mxCell>
        <mxCell id="VEaSsE62jDZdbeiAd7b5-9" value="accept" style="ellipse;whiteSpace=wrap;html=1;" vertex="1" parent="1">
          <mxGeometry x="210" y="240" width="50" height="30" as="geometry" />
        </mxCell>
        <mxCell id="VEaSsE62jDZdbeiAd7b5-11" value="&lt;span style=&quot;color: rgb(51, 51, 255);&quot;&gt;ack=1&lt;/span&gt;" style="text;html=1;align=center;verticalAlign=middle;whiteSpace=wrap;rounded=0;" vertex="1" parent="1">
          <mxGeometry x="250" y="200" width="60" height="30" as="geometry" />
        </mxCell>
        <mxCell id="VEaSsE62jDZdbeiAd7b5-12" value="&lt;div&gt;&lt;span style=&quot;color: rgb(255, 51, 51);&quot;&gt;req=0&lt;/span&gt;&lt;/div&gt;" style="text;html=1;align=center;verticalAlign=middle;whiteSpace=wrap;rounded=0;" vertex="1" parent="1">
          <mxGeometry x="250" y="210" width="60" height="30" as="geometry" />
        </mxCell>
        <mxCell id="VEaSsE62jDZdbeiAd7b5-20" style="edgeStyle=orthogonalEdgeStyle;rounded=0;orthogonalLoop=1;jettySize=auto;html=1;exitX=0;exitY=0.5;exitDx=0;exitDy=0;entryX=1;entryY=0.5;entryDx=0;entryDy=0;" edge="1" parent="1" source="VEaSsE62jDZdbeiAd7b5-13" target="VEaSsE62jDZdbeiAd7b5-18">
          <mxGeometry relative="1" as="geometry" />
        </mxCell>
        <mxCell id="VEaSsE62jDZdbeiAd7b5-13" value="&lt;div&gt;get&lt;/div&gt;&lt;div&gt;voltage&lt;/div&gt;" style="ellipse;whiteSpace=wrap;html=1;" vertex="1" parent="1">
          <mxGeometry x="205" y="310" width="60" height="30" as="geometry" />
        </mxCell>
        <mxCell id="VEaSsE62jDZdbeiAd7b5-15" value="&lt;span style=&quot;color: rgb(51, 51, 255);&quot;&gt;ack=0&lt;/span&gt;" style="text;html=1;align=center;verticalAlign=middle;whiteSpace=wrap;rounded=0;" vertex="1" parent="1">
          <mxGeometry x="250" y="260" width="60" height="30" as="geometry" />
        </mxCell>
        <mxCell id="VEaSsE62jDZdbeiAd7b5-17" value="&lt;div&gt;&lt;span style=&quot;color: rgb(255, 51, 51);&quot;&gt;emu_busy=1&lt;/span&gt;&lt;/div&gt;" style="text;html=1;align=center;verticalAlign=middle;whiteSpace=wrap;rounded=0;" vertex="1" parent="1">
          <mxGeometry x="250" y="280" width="60" height="30" as="geometry" />
        </mxCell>
        <mxCell id="VEaSsE62jDZdbeiAd7b5-21" style="edgeStyle=orthogonalEdgeStyle;rounded=0;orthogonalLoop=1;jettySize=auto;html=1;exitX=0;exitY=0.5;exitDx=0;exitDy=0;entryX=1;entryY=0.5;entryDx=0;entryDy=0;" edge="1" parent="1" source="VEaSsE62jDZdbeiAd7b5-18" target="VEaSsE62jDZdbeiAd7b5-19">
          <mxGeometry relative="1" as="geometry" />
        </mxCell>
        <mxCell id="VEaSsE62jDZdbeiAd7b5-18" value="&lt;div&gt;update&lt;/div&gt;&lt;div&gt;voltage&lt;/div&gt;" style="ellipse;whiteSpace=wrap;html=1;" vertex="1" parent="1">
          <mxGeometry x="110" y="310" width="60" height="30" as="geometry" />
        </mxCell>
        <mxCell id="VEaSsE62jDZdbeiAd7b5-22" style="edgeStyle=orthogonalEdgeStyle;rounded=1;orthogonalLoop=1;jettySize=auto;html=1;exitX=0.5;exitY=1;exitDx=0;exitDy=0;entryX=0.5;entryY=1;entryDx=0;entryDy=0;curved=0;" edge="1" parent="1" source="VEaSsE62jDZdbeiAd7b5-19" target="VEaSsE62jDZdbeiAd7b5-13">
          <mxGeometry relative="1" as="geometry" />
        </mxCell>
        <mxCell id="VEaSsE62jDZdbeiAd7b5-28" style="edgeStyle=orthogonalEdgeStyle;rounded=0;orthogonalLoop=1;jettySize=auto;html=1;exitX=0.5;exitY=0;exitDx=0;exitDy=0;" edge="1" parent="1" source="VEaSsE62jDZdbeiAd7b5-19" target="VEaSsE62jDZdbeiAd7b5-26">
          <mxGeometry relative="1" as="geometry" />
        </mxCell>
        <mxCell id="VEaSsE62jDZdbeiAd7b5-19" value="&lt;div&gt;set&lt;/div&gt;&lt;div&gt;voltage&lt;/div&gt;" style="ellipse;whiteSpace=wrap;html=1;" vertex="1" parent="1">
          <mxGeometry x="20" y="310" width="60" height="30" as="geometry" />
        </mxCell>
        <mxCell id="VEaSsE62jDZdbeiAd7b5-23" value="&lt;span style=&quot;color: rgb(51, 51, 255);&quot;&gt;counter!=N-1&lt;/span&gt;" style="text;html=1;align=center;verticalAlign=middle;whiteSpace=wrap;rounded=0;" vertex="1" parent="1">
          <mxGeometry x="70" y="350" width="140" height="30" as="geometry" />
        </mxCell>
        <mxCell id="VEaSsE62jDZdbeiAd7b5-27" style="edgeStyle=orthogonalEdgeStyle;rounded=0;orthogonalLoop=1;jettySize=auto;html=1;exitX=1;exitY=0.5;exitDx=0;exitDy=0;entryX=0;entryY=0.5;entryDx=0;entryDy=0;" edge="1" parent="1" source="VEaSsE62jDZdbeiAd7b5-26" target="VEaSsE62jDZdbeiAd7b5-1">
          <mxGeometry relative="1" as="geometry" />
        </mxCell>
        <mxCell id="VEaSsE62jDZdbeiAd7b5-26" value="finish" style="ellipse;whiteSpace=wrap;html=1;" vertex="1" parent="1">
          <mxGeometry x="25" y="180" width="50" height="30" as="geometry" />
        </mxCell>
        <mxCell id="VEaSsE62jDZdbeiAd7b5-29" value="&lt;span style=&quot;color: rgb(51, 51, 255);&quot;&gt;counter=N-1&lt;/span&gt;" style="text;html=1;align=center;verticalAlign=middle;whiteSpace=wrap;rounded=0;" vertex="1" parent="1">
          <mxGeometry x="50" y="230" width="70" height="30" as="geometry" />
        </mxCell>
        <mxCell id="VEaSsE62jDZdbeiAd7b5-30" value="&lt;div&gt;&lt;span style=&quot;color: rgb(255, 51, 51);&quot;&gt;emu_busy=0&lt;/span&gt;&lt;/div&gt;" style="text;html=1;align=center;verticalAlign=middle;whiteSpace=wrap;rounded=0;" vertex="1" parent="1">
          <mxGeometry x="55" y="250" width="60" height="30" as="geometry" />
        </mxCell>
        <mxCell id="VEaSsE62jDZdbeiAd7b5-31" value="&lt;div&gt;&lt;br&gt;&lt;/div&gt;&lt;div&gt;&lt;br&gt;&lt;/div&gt;&lt;div&gt;&lt;br&gt;&lt;/div&gt;&lt;div&gt;&lt;br&gt;&lt;/div&gt;&lt;div&gt;&lt;br&gt;&lt;/div&gt;&lt;div&gt;&lt;br&gt;&lt;/div&gt;&lt;div&gt;Neuron update&lt;/div&gt;" style="rounded=0;whiteSpace=wrap;html=1;fillColor=none;" vertex="1" parent="1">
          <mxGeometry x="10" y="295" width="270" height="105" as="geometry" />
        </mxCell>
      </root>
    </mxGraphModel>
  </diagram>
</mxfile>
